<svg width="320" height="186" viewBox="0 0 320 186" fill="none" xmlns="http://www.w3.org/2000/svg">
<g clip-path="url(#clip0_853_71)">
<path d="M72.1554 24.048C72.1554 28.3571 72.1554 32.4441 72.1554 36.5311C72.1554 36.7236 72.1183 36.9235 72.0887 37.2492H58.0432C58.4511 38.1599 58.6142 38.9077 59.0369 39.4334C62.3963 43.6092 64.8805 48.2219 65.8446 53.5083C67.4686 62.3708 65.8891 70.6558 60.8909 78.2153C56.2115 85.286 49.7153 89.7654 41.5135 91.9422C34.3053 93.8524 27.1194 95.8663 19.9855 98.0356C16.07 99.2203 12.503 101.182 9.91487 104.514C7.72722 107.328 7.37126 110.926 9.15105 113.562C10.6935 115.85 13.1333 116.531 15.7214 116.671C18.8286 116.849 21.7356 115.99 24.5165 114.665C29.3738 112.347 33.2671 108.683 37.4867 105.477C41.6469 102.315 45.7553 99.0648 50.1528 96.2587C54.7283 93.3415 59.8823 91.8385 65.3996 91.9496C70.4053 92.0532 74.8844 93.534 78.5404 97.0953C78.7109 97.2582 78.9112 97.3989 79.1855 97.621C80.9505 95.6886 82.708 93.7932 84.4137 91.8607C84.6139 91.6312 84.6139 91.1796 84.6139 90.8316C84.6213 74.1801 84.6287 57.536 84.5916 40.8846C84.5916 40.3959 84.2283 39.737 83.8278 39.4482C81.922 38.0859 79.942 36.8272 77.9916 35.5241C77.6727 35.3094 77.3687 35.0577 76.9089 34.7023C84.1541 32.37 91.2213 30.097 98.4295 27.7796V48.755C98.4962 48.7624 98.5555 48.7698 98.6223 48.7772C99.0746 47.1557 99.4603 45.512 99.9868 43.9128C101.529 39.1965 103.947 35.0799 108.181 32.2368C111.088 30.2895 114.329 29.1641 117.733 28.557C120.002 28.1498 122.316 27.9943 124.607 27.7352C124.874 27.7056 125.148 27.7352 125.542 27.7352C124.503 31.5556 123.517 35.2502 122.501 38.9373C121.67 41.9507 121.656 41.9507 118.378 42.084C114.062 42.2617 109.813 42.8096 105.823 44.594C100.951 46.7781 98.422 50.4283 98.4517 55.885C98.5184 67.3907 98.4814 78.8964 98.4517 90.3948C98.4517 91.261 98.6594 91.92 99.26 92.5641C101.544 95.0074 103.776 97.5025 106.216 100.183H81.0247C81.2842 100.76 81.4622 101.153 81.6402 101.545C84.562 108.046 82.671 116.02 77.2426 120.655C70.6129 126.311 63.0266 127.466 54.7654 125.586C49.4632 124.379 44.8061 121.958 41.0166 118.011C40.2899 117.256 39.6447 116.42 38.9328 115.59C37.7907 117.39 36.7229 119.241 35.4918 120.966C32.8222 124.697 29.5147 127.77 25.1172 129.28C17.5679 131.872 10.5081 130.991 4.52361 125.386C-1.36451 119.87 -1.46092 111.037 4.06383 105.106C7.78654 101.108 12.54 98.9167 17.5976 97.2804C20.2969 96.4068 23.0556 95.7478 25.7994 95.0148C28.5359 94.2892 31.2797 93.5933 34.3721 92.7936C32.6145 92.6678 31.2055 92.5937 29.7965 92.4679C15.1207 91.1203 3.07753 79.2814 1.06044 65.0288C-0.600688 53.2566 2.86248 43.1354 11.7466 35.265C20.0003 27.9573 29.8262 25.6176 40.6755 27.8907C45.1843 28.8384 49.3 30.6967 52.956 33.5102C53.6308 34.0285 54.1277 34.0433 54.8767 33.6287C60.2012 30.6227 65.5554 27.6685 70.9096 24.6996C71.2507 24.507 71.6141 24.3442 72.1628 24.0702L72.1554 24.048ZM54.9212 70.6558C54.5949 61.6082 51.7027 53.1455 46.5413 45.4306C43.0337 40.196 38.8809 35.5834 33.2968 32.4441C29.7595 30.4524 25.9997 29.3788 21.9729 30.5635C17.2565 31.9554 14.7277 35.5315 13.2594 39.9591C11.4277 45.475 11.8652 51.0798 12.9257 56.6402C14.5868 65.3324 18.3985 73.0325 24.2792 79.659C27.6534 83.4573 31.517 86.6706 36.3372 88.4623C42.7667 90.8538 48.1506 89.5877 51.851 83.2574C54.0832 79.4443 54.8173 75.2537 54.9137 70.6484L54.9212 70.6558ZM70.8428 107.838C70.5091 106.491 70.1976 104.344 69.4338 102.374C67.3277 96.9324 61.447 93.9783 55.7591 95.3258C52.3256 96.1402 49.745 98.2355 47.498 100.82C44.2128 104.596 42.0919 109.068 39.9487 113.517C39.7856 113.865 39.9413 114.539 40.186 114.88C43.0337 118.789 46.6897 121.625 51.3468 123.083C55.329 124.327 59.289 124.431 63.0266 122.365C68.403 119.396 70.3385 114.421 70.8354 107.831L70.8428 107.838Z" fill="white"/>
<path d="M310.602 99.9607C309.111 100.183 307.628 100.583 306.138 100.59C301.592 100.612 297.142 99.9533 293.093 97.7173C286.968 94.3337 283.668 88.9732 282.645 82.1912C282.296 79.8812 282.192 77.5119 282.185 75.1723C282.148 60.2681 282.162 45.3566 282.162 30.4524V28.8384H256.852C256.83 29.2752 256.801 29.7046 256.801 30.1267C256.801 50.258 256.793 70.3893 256.83 90.5207C256.83 91.1648 257.149 91.9348 257.572 92.4235C259.811 94.9704 262.132 97.4508 264.565 100.109H235.273C236.682 98.5539 237.979 97.1324 239.262 95.696C240.478 94.3411 242.147 93.1491 242.762 91.5572C243.378 89.9654 242.94 87.9663 242.94 86.1449C242.94 67.5906 242.94 49.0438 242.94 30.4895V28.7643C241.064 28.7643 239.292 28.794 237.52 28.7421C237.171 28.7347 236.837 28.4312 236.496 28.2683C236.83 28.098 237.164 27.7944 237.497 27.7796C239.277 27.7278 241.057 27.7574 242.837 27.7574C243.067 26.2174 243.222 24.7736 243.511 23.3595C244.95 16.422 249.177 11.4613 254.939 7.69272C263.245 2.25822 272.337 -0.584891 282.333 0.0962721C284.38 0.236947 286.486 0.88109 288.377 1.71033C291.202 2.94679 292.352 6.24155 291.447 9.35861C290.298 13.3197 287.487 15.9703 284.365 18.3618C278.173 23.1077 271.031 25.7658 263.541 27.7574H268.05C268.985 27.7574 269.934 27.6464 270.846 27.7796C275.221 28.409 278.9 26.7135 282.481 24.5071C287.331 21.5159 291.595 17.9028 295.096 13.3938C295.266 13.1716 295.452 12.9495 295.644 12.7422C295.689 12.6904 295.778 12.6904 295.985 12.6089V27.7574C298.907 27.7574 301.696 27.7574 304.484 27.7574C305.537 27.7574 306.597 27.713 307.65 27.7796C307.984 27.8018 308.296 28.1202 308.615 28.3053C308.303 28.4608 307.992 28.7421 307.68 28.7421C304.269 28.7718 300.865 28.7643 297.454 28.7643C297.016 28.7643 296.586 28.7643 296.082 28.7643C296.052 29.1568 296.008 29.4307 296.008 29.7046C296.015 47.0447 296.015 64.3773 296.052 81.7174C296.052 85.0491 296.534 88.3291 297.654 91.498C299.59 96.9547 303.112 99.3832 308.896 99.2425C309.46 99.2277 310.016 99.3017 310.58 99.3388C310.58 99.5461 310.58 99.7534 310.587 99.9607H310.602ZM256.815 27.4687C257.876 27.402 258.721 27.3724 259.567 27.2836C264.439 26.7653 269.044 25.4844 272.959 22.3896C277.58 18.7394 280.242 14.1119 279.938 8.04811C279.752 4.41277 277.906 2.28784 274.287 1.95466C269.133 1.48081 265.091 3.76863 261.836 7.52983C259.93 9.73621 258.855 12.4164 258.15 15.2373C257.156 19.2207 256.808 23.2632 256.815 27.4687Z" fill="white"/>
<path d="M201.946 44.4459C208.724 45.4676 215.109 47.6 220.767 51.524C226.863 55.7517 230.838 61.4675 231.898 68.9011C233.189 77.9191 230.282 85.5674 223.837 91.9126C219.091 96.5844 213.3 99.1684 206.774 100.272C197.081 101.908 187.923 100.338 179.484 95.3628C170.14 89.8543 164.007 81.8062 162.168 71.0408C159.839 57.3954 163.755 45.6231 174.107 36.2793C179.973 30.9855 186.951 27.9351 194.909 27.2465C203.103 26.5357 210.83 27.9943 217.935 32.1627C222.888 35.0725 226.945 38.9818 230.245 44.1053H201.954C201.954 44.2238 201.954 44.3348 201.954 44.4533L201.946 44.4459ZM185.995 43.8758C185.995 43.9424 185.995 44.009 185.987 44.0757C183.021 44.0757 180.062 44.1201 177.096 44.0535C176.11 44.0313 175.687 44.3348 175.398 45.2825C173.803 50.5097 173.677 55.8183 174.552 61.1492C176.117 70.6558 179.884 79.0963 186.937 85.8783C193.507 92.1939 201.271 95.2665 210.408 94.1263C221.924 92.69 230.438 83.3462 230.489 72.1144C230.519 64.5624 227.308 58.4097 221.553 53.6194C215.065 48.2219 207.382 45.5417 199.106 44.6162C194.768 44.1275 190.37 44.1127 186.002 43.8758H185.995ZM213.114 43.0317C212.632 36.3312 203.325 29.5121 195.101 29.6084C184.571 29.7268 177.8 37.4714 176.399 43.0317H213.114Z" fill="white"/>
<path d="M157.763 100.153H128.575C129.516 99.0944 130.317 98.1763 131.14 97.2804C132.668 95.6071 134.233 93.9634 135.723 92.2531C136.035 91.8977 136.257 91.3351 136.257 90.8612C136.287 74.1727 136.287 57.4916 136.242 40.8031C136.242 40.3219 135.849 39.6703 135.442 39.3816C133.232 37.8193 130.962 36.3534 128.508 34.7097C135.842 32.3478 142.939 30.0674 150.125 27.75V29.3492C150.125 49.6805 150.125 70.0117 150.11 90.3355C150.11 91.2388 150.325 91.9052 150.97 92.5863C153.069 94.7779 155.071 97.0583 157.11 99.3091C157.296 99.5164 157.452 99.7459 157.763 100.146V100.153Z" fill="white"/>
<path d="M142.486 2.45069C147.24 2.48771 151.17 6.44882 151.096 11.1429C151.022 15.8666 147.173 19.6278 142.42 19.6056C137.555 19.5834 133.766 15.763 133.84 10.9504C133.914 6.2119 137.77 2.41367 142.479 2.44329L142.486 2.45069Z" fill="white"/>
</g>
<defs>
<clipPath id="clip0_853_71">
<rect width="310.602" height="130.657" fill="white"/>
</clipPath>
</defs>
</svg>
