<?xml version="1.0" standalone="no"?>
<!DOCTYPE svg PUBLIC "-//W3C//DTD SVG 20010904//EN"
 "http://www.w3.org/TR/2001/REC-SVG-20010904/DTD/svg10.dtd">
<svg version="1.0" xmlns="http://www.w3.org/2000/svg"
 width="260.000000pt" height="260.000000pt" viewBox="0 0 260.000000 260.000000"
 preserveAspectRatio="xMidYMid meet">
<metadata>
Created by potrace 1.14, written by Peter Selinger 2001-2017
</metadata>
<g transform="translate(0.000000,260.000000) scale(0.100000,-0.100000)"
fill="#000000" stroke="none">
<path d="M1660 2120 l-144 -79 -31 20 c-227 153 -523 123 -715 -71 -247 -251
-198 -667 102 -861 58 -38 148 -69 216 -76 29 -3 55 -9 57 -13 3 -4 -35 -17
-83 -29 -229 -58 -344 -114 -409 -199 -102 -134 -49 -310 116 -386 64 -29 206
-29 273 2 60 27 118 80 175 159 l45 64 54 -51 c67 -64 156 -106 256 -122 221
-34 418 94 435 281 18 194 -163 332 -382 292 -95 -17 -187 -70 -375 -216 -201
-155 -258 -187 -348 -193 -103 -7 -162 33 -162 110 0 47 18 83 62 124 56 54
110 74 403 154 83 22 182 56 220 75 121 58 229 185 277 323 19 55 23 86 22
177 -1 94 -5 120 -28 179 -14 38 -44 95 -66 127 -22 32 -40 63 -40 69 0 6 45
10 118 10 l117 0 -3 105 c-2 58 -6 105 -10 105 -4 0 -72 -36 -152 -80z m-498
-52 c291 -154 462 -638 309 -876 -84 -131 -248 -122 -407 22 -159 144 -258
371 -258 591 1 251 159 368 356 263z m524 -1089 c136 -64 154 -280 34 -400
-78 -77 -184 -87 -303 -28 -47 24 -137 106 -137 126 0 20 67 152 97 193 71 94
162 146 238 133 17 -3 49 -14 71 -24z"/>
</g>
</svg>
